<mxfile host="app.diagrams.net" agent="Mozilla/5.0 (Windows NT 10.0; Win64; x64) AppleWebKit/537.36 (KHTML, like Gecko) Chrome/136.0.0.0 Safari/537.36" version="27.0.6">
  <diagram name="Page-1" id="e7e014a7-5840-1c2e-5031-d8a46d1fe8dd">
    <mxGraphModel dx="1884" dy="410" grid="1" gridSize="10" guides="1" tooltips="1" connect="1" arrows="1" fold="1" page="1" pageScale="1" pageWidth="1169" pageHeight="826" background="none" math="0" shadow="0">
      <root>
        <mxCell id="0" />
        <mxCell id="1" parent="0" />
        <mxCell id="_3tYd07YaPsQRmrrhwC6-42" value="user" style="swimlane;fontStyle=0;childLayout=stackLayout;horizontal=1;startSize=26;fillColor=none;horizontalStack=0;resizeParent=1;resizeParentMax=0;resizeLast=0;collapsible=1;marginBottom=0;whiteSpace=wrap;html=1;" vertex="1" parent="1">
          <mxGeometry x="300" y="10" width="160" height="320" as="geometry">
            <mxRectangle x="310" y="10" width="60" height="30" as="alternateBounds" />
          </mxGeometry>
        </mxCell>
        <mxCell id="_3tYd07YaPsQRmrrhwC6-43" value="+ name: string" style="text;strokeColor=none;fillColor=none;align=left;verticalAlign=top;spacingLeft=4;spacingRight=4;overflow=hidden;rotatable=0;points=[[0,0.5],[1,0.5]];portConstraint=eastwest;whiteSpace=wrap;html=1;" vertex="1" parent="_3tYd07YaPsQRmrrhwC6-42">
          <mxGeometry y="26" width="160" height="26" as="geometry" />
        </mxCell>
        <mxCell id="_3tYd07YaPsQRmrrhwC6-44" value="+ email: string" style="text;strokeColor=none;fillColor=none;align=left;verticalAlign=top;spacingLeft=4;spacingRight=4;overflow=hidden;rotatable=0;points=[[0,0.5],[1,0.5]];portConstraint=eastwest;whiteSpace=wrap;html=1;" vertex="1" parent="_3tYd07YaPsQRmrrhwC6-42">
          <mxGeometry y="52" width="160" height="26" as="geometry" />
        </mxCell>
        <mxCell id="_3tYd07YaPsQRmrrhwC6-45" value="+ password: string" style="text;strokeColor=none;fillColor=none;align=left;verticalAlign=top;spacingLeft=4;spacingRight=4;overflow=hidden;rotatable=0;points=[[0,0.5],[1,0.5]];portConstraint=eastwest;whiteSpace=wrap;html=1;" vertex="1" parent="_3tYd07YaPsQRmrrhwC6-42">
          <mxGeometry y="78" width="160" height="32" as="geometry" />
        </mxCell>
        <mxCell id="_3tYd07YaPsQRmrrhwC6-46" value="+ joine_date :date&lt;div&gt;&lt;br&gt;&lt;/div&gt;" style="text;strokeColor=none;fillColor=none;align=left;verticalAlign=top;spacingLeft=4;spacingRight=4;overflow=hidden;rotatable=0;points=[[0,0.5],[1,0.5]];portConstraint=eastwest;whiteSpace=wrap;html=1;" vertex="1" parent="_3tYd07YaPsQRmrrhwC6-42">
          <mxGeometry y="110" width="160" height="30" as="geometry" />
        </mxCell>
        <mxCell id="_3tYd07YaPsQRmrrhwC6-48" value="+addr:address" style="text;strokeColor=none;fillColor=none;align=left;verticalAlign=top;spacingLeft=4;spacingRight=4;overflow=hidden;rotatable=0;points=[[0,0.5],[1,0.5]];portConstraint=eastwest;whiteSpace=wrap;html=1;" vertex="1" parent="_3tYd07YaPsQRmrrhwC6-42">
          <mxGeometry y="140" width="160" height="30" as="geometry" />
        </mxCell>
        <mxCell id="_3tYd07YaPsQRmrrhwC6-47" value="&lt;div&gt;+user();&lt;/div&gt;&lt;div&gt;+user(strings n, strings e, strings pass, Date d, Address a) ;&lt;/div&gt;&lt;div&gt;&lt;br&gt;&lt;/div&gt;&lt;div&gt;+&lt;span style=&quot;background-color: transparent; color: light-dark(rgb(0, 0, 0), rgb(255, 255, 255));&quot;&gt;displayDashboard() const :void virtual&lt;/span&gt;&lt;span style=&quot;font-size: 12.573px; color: light-dark(rgb(233, 174, 126), rgb(123, 72, 31)); font-family: Menlo, &amp;quot;Roboto Mono&amp;quot;, &amp;quot;Courier New&amp;quot;, Courier, monospace, Inter, sans-serif; background-color: transparent; white-space: pre;&quot;&gt;&#x9;&lt;/span&gt;&lt;/div&gt;&lt;div&gt;+&lt;span style=&quot;white-space: normal;&quot;&gt;&lt;span style=&quot;background-color: transparent;&quot;&gt;&amp;nbsp;getUsername()const:string&lt;/span&gt;&lt;/span&gt;&lt;/div&gt;&lt;div&gt;&lt;span style=&quot;white-space: normal;&quot;&gt;+ getEmail() const:string&lt;/span&gt;&lt;/div&gt;" style="text;strokeColor=none;fillColor=none;align=left;verticalAlign=top;spacingLeft=4;spacingRight=4;overflow=hidden;rotatable=0;points=[[0,0.5],[1,0.5]];portConstraint=eastwest;whiteSpace=wrap;html=1;" vertex="1" parent="_3tYd07YaPsQRmrrhwC6-42">
          <mxGeometry y="170" width="160" height="150" as="geometry" />
        </mxCell>
        <mxCell id="_3tYd07YaPsQRmrrhwC6-49" value="&lt;p style=&quot;margin:0px;margin-top:4px;text-align:center;&quot;&gt;&lt;b&gt;customer&lt;/b&gt;&lt;/p&gt;&lt;hr size=&quot;1&quot; style=&quot;border-style:solid;&quot;&gt;&lt;p style=&quot;margin:0px;margin-left:4px;&quot;&gt;+ shipping: string&lt;/p&gt;&lt;p style=&quot;margin: 0px 0px 0px 4px;&quot;&gt;+&lt;span style=&quot;background-color: transparent;&quot;&gt;&amp;nbsp;shippingAddress:string&lt;/span&gt;&lt;/p&gt;&lt;p style=&quot;margin: 0px 0px 0px 4px;&quot;&gt;+ cart:&lt;span style=&quot;background-color: transparent; color: light-dark(rgb(0, 0, 0), rgb(255, 255, 255));&quot;&gt;ShoppingCart&lt;/span&gt;&lt;/p&gt;&lt;p style=&quot;margin: 0px 0px 0px 4px;&quot;&gt;+&amp;nbsp; orderHistory:&lt;span style=&quot;background-color: transparent; color: light-dark(rgb(0, 0, 0), rgb(255, 255, 255));&quot;&gt;vector&amp;lt;Order&amp;gt;&lt;/span&gt;&lt;/p&gt;&lt;p style=&quot;margin:0px;margin-left:4px;&quot;&gt;&lt;br&gt;&lt;/p&gt;&lt;p style=&quot;margin:0px;margin-left:4px;&quot;&gt;+displayDashboard() const:void&lt;/p&gt;&lt;p style=&quot;margin:0px;margin-left:4px;&quot;&gt;&lt;br&gt;&lt;/p&gt;&lt;p style=&quot;margin:0px;margin-left:4px;&quot;&gt;+&amp;nbsp; setShippingAddress():void&lt;/p&gt;&lt;p style=&quot;margin:0px;margin-left:4px;&quot;&gt;+&amp;nbsp;ShoppingCart&amp;amp; getCart()&amp;nbsp;&lt;/p&gt;&lt;p style=&quot;margin:0px;margin-left:4px;&quot;&gt;&lt;br&gt;&lt;/p&gt;&lt;p style=&quot;margin:0px;margin-left:4px;&quot;&gt;+addToOrderHistory(const Order&amp;amp; order):void&lt;/p&gt;&lt;p style=&quot;margin:0px;margin-left:4px;&quot;&gt;&lt;br&gt;&lt;/p&gt;&lt;p style=&quot;margin:0px;margin-left:4px;&quot;&gt;+const vector&amp;lt;Order&amp;gt;&amp;amp; getOrderHistory() const&lt;/p&gt;&lt;p style=&quot;margin:0px;margin-left:4px;&quot;&gt;&lt;br&gt;&lt;/p&gt;" style="verticalAlign=top;align=left;overflow=fill;html=1;whiteSpace=wrap;" vertex="1" parent="1">
          <mxGeometry x="60" y="100" width="171" height="300" as="geometry" />
        </mxCell>
        <mxCell id="_3tYd07YaPsQRmrrhwC6-50" value="&lt;p style=&quot;margin:0px;margin-top:4px;text-align:center;&quot;&gt;&lt;b&gt;admin&lt;/b&gt;&lt;/p&gt;&lt;hr size=&quot;1&quot; style=&quot;border-style:solid;&quot;&gt;&lt;p style=&quot;margin:0px;margin-left:4px;&quot;&gt;+ field: Type&lt;/p&gt;&lt;hr size=&quot;1&quot; style=&quot;border-style:solid;&quot;&gt;&lt;p style=&quot;margin:0px;margin-left:4px;&quot;&gt;+ displayDashboard() const override:void&lt;/p&gt;&lt;p style=&quot;margin:0px;margin-left:4px;&quot;&gt;&lt;br&gt;&lt;/p&gt;&lt;p style=&quot;margin:0px;margin-left:4px;&quot;&gt;+ addProduct(Inventory&amp;amp; inventory, const Product&amp;amp; product) const:bool&lt;/p&gt;&lt;p style=&quot;margin:0px;margin-left:4px;&quot;&gt;&lt;br&gt;&lt;/p&gt;&lt;p style=&quot;margin:0px;margin-left:4px;&quot;&gt;+ removeProduct(Inventory&amp;amp; inventory, const string&amp;amp; productId) const:bool&lt;/p&gt;" style="verticalAlign=top;align=left;overflow=fill;html=1;whiteSpace=wrap;" vertex="1" parent="1">
          <mxGeometry x="600" y="40" width="180" height="230" as="geometry" />
        </mxCell>
        <mxCell id="_3tYd07YaPsQRmrrhwC6-60" value="Product" style="swimlane;fontStyle=1;align=center;verticalAlign=top;childLayout=stackLayout;horizontal=1;startSize=26;horizontalStack=0;resizeParent=1;resizeParentMax=0;resizeLast=0;collapsible=1;marginBottom=0;whiteSpace=wrap;html=1;" vertex="1" parent="1">
          <mxGeometry x="310" y="360" width="150" height="378" as="geometry" />
        </mxCell>
        <mxCell id="_3tYd07YaPsQRmrrhwC6-61" value="+ product_id:string&amp;nbsp;" style="text;strokeColor=none;fillColor=none;align=left;verticalAlign=top;spacingLeft=4;spacingRight=4;overflow=hidden;rotatable=0;points=[[0,0.5],[1,0.5]];portConstraint=eastwest;whiteSpace=wrap;html=1;" vertex="1" parent="_3tYd07YaPsQRmrrhwC6-60">
          <mxGeometry y="26" width="150" height="24" as="geometry" />
        </mxCell>
        <mxCell id="_3tYd07YaPsQRmrrhwC6-64" value="+name:string" style="text;strokeColor=none;fillColor=none;align=left;verticalAlign=top;spacingLeft=4;spacingRight=4;overflow=hidden;rotatable=0;points=[[0,0.5],[1,0.5]];portConstraint=eastwest;whiteSpace=wrap;html=1;" vertex="1" parent="_3tYd07YaPsQRmrrhwC6-60">
          <mxGeometry y="50" width="150" height="20" as="geometry" />
        </mxCell>
        <mxCell id="_3tYd07YaPsQRmrrhwC6-67" value="+description:string" style="text;strokeColor=none;fillColor=none;align=left;verticalAlign=top;spacingLeft=4;spacingRight=4;overflow=hidden;rotatable=0;points=[[0,0.5],[1,0.5]];portConstraint=eastwest;whiteSpace=wrap;html=1;" vertex="1" parent="_3tYd07YaPsQRmrrhwC6-60">
          <mxGeometry y="70" width="150" height="26" as="geometry" />
        </mxCell>
        <mxCell id="_3tYd07YaPsQRmrrhwC6-66" value="+price:double" style="text;strokeColor=none;fillColor=none;align=left;verticalAlign=top;spacingLeft=4;spacingRight=4;overflow=hidden;rotatable=0;points=[[0,0.5],[1,0.5]];portConstraint=eastwest;whiteSpace=wrap;html=1;" vertex="1" parent="_3tYd07YaPsQRmrrhwC6-60">
          <mxGeometry y="96" width="150" height="24" as="geometry" />
        </mxCell>
        <mxCell id="_3tYd07YaPsQRmrrhwC6-65" value="+category:string" style="text;strokeColor=none;fillColor=none;align=left;verticalAlign=top;spacingLeft=4;spacingRight=4;overflow=hidden;rotatable=0;points=[[0,0.5],[1,0.5]];portConstraint=eastwest;whiteSpace=wrap;html=1;" vertex="1" parent="_3tYd07YaPsQRmrrhwC6-60">
          <mxGeometry y="120" width="150" height="18" as="geometry" />
        </mxCell>
        <mxCell id="_3tYd07YaPsQRmrrhwC6-68" value="+stock :int" style="text;strokeColor=none;fillColor=none;align=left;verticalAlign=top;spacingLeft=4;spacingRight=4;overflow=hidden;rotatable=0;points=[[0,0.5],[1,0.5]];portConstraint=eastwest;whiteSpace=wrap;html=1;" vertex="1" parent="_3tYd07YaPsQRmrrhwC6-60">
          <mxGeometry y="138" width="150" height="18" as="geometry" />
        </mxCell>
        <mxCell id="_3tYd07YaPsQRmrrhwC6-62" value="" style="line;strokeWidth=1;fillColor=none;align=left;verticalAlign=middle;spacingTop=-1;spacingLeft=3;spacingRight=3;rotatable=0;labelPosition=right;points=[];portConstraint=eastwest;strokeColor=inherit;" vertex="1" parent="_3tYd07YaPsQRmrrhwC6-60">
          <mxGeometry y="156" width="150" height="8" as="geometry" />
        </mxCell>
        <mxCell id="_3tYd07YaPsQRmrrhwC6-63" value="+ updateStock(int quantity):bool&lt;br&gt;&lt;div&gt;&lt;br&gt;&lt;/div&gt;" style="text;strokeColor=none;fillColor=none;align=left;verticalAlign=top;spacingLeft=4;spacingRight=4;overflow=hidden;rotatable=0;points=[[0,0.5],[1,0.5]];portConstraint=eastwest;whiteSpace=wrap;html=1;" vertex="1" parent="_3tYd07YaPsQRmrrhwC6-60">
          <mxGeometry y="164" width="150" height="36" as="geometry" />
        </mxCell>
        <mxCell id="_3tYd07YaPsQRmrrhwC6-71" value="+getId() const : string" style="text;strokeColor=none;fillColor=none;align=left;verticalAlign=top;spacingLeft=4;spacingRight=4;overflow=hidden;rotatable=0;points=[[0,0.5],[1,0.5]];portConstraint=eastwest;whiteSpace=wrap;html=1;" vertex="1" parent="_3tYd07YaPsQRmrrhwC6-60">
          <mxGeometry y="200" width="150" height="20" as="geometry" />
        </mxCell>
        <mxCell id="_3tYd07YaPsQRmrrhwC6-70" value="+getName() const :string" style="text;strokeColor=none;fillColor=none;align=left;verticalAlign=top;spacingLeft=4;spacingRight=4;overflow=hidden;rotatable=0;points=[[0,0.5],[1,0.5]];portConstraint=eastwest;whiteSpace=wrap;html=1;" vertex="1" parent="_3tYd07YaPsQRmrrhwC6-60">
          <mxGeometry y="220" width="150" height="30" as="geometry" />
        </mxCell>
        <mxCell id="_3tYd07YaPsQRmrrhwC6-69" value="+getDescription()const&lt;div&gt;:string&lt;/div&gt;" style="text;strokeColor=none;fillColor=none;align=left;verticalAlign=top;spacingLeft=4;spacingRight=4;overflow=hidden;rotatable=0;points=[[0,0.5],[1,0.5]];portConstraint=eastwest;whiteSpace=wrap;html=1;" vertex="1" parent="_3tYd07YaPsQRmrrhwC6-60">
          <mxGeometry y="250" width="150" height="34" as="geometry" />
        </mxCell>
        <mxCell id="_3tYd07YaPsQRmrrhwC6-73" value="+getPrice() const:double&amp;nbsp;" style="text;strokeColor=none;fillColor=none;align=left;verticalAlign=top;spacingLeft=4;spacingRight=4;overflow=hidden;rotatable=0;points=[[0,0.5],[1,0.5]];portConstraint=eastwest;whiteSpace=wrap;html=1;" vertex="1" parent="_3tYd07YaPsQRmrrhwC6-60">
          <mxGeometry y="284" width="150" height="26" as="geometry" />
        </mxCell>
        <mxCell id="_3tYd07YaPsQRmrrhwC6-72" value="+&amp;nbsp;getCategory() const:string" style="text;strokeColor=none;fillColor=none;align=left;verticalAlign=top;spacingLeft=4;spacingRight=4;overflow=hidden;rotatable=0;points=[[0,0.5],[1,0.5]];portConstraint=eastwest;whiteSpace=wrap;html=1;" vertex="1" parent="_3tYd07YaPsQRmrrhwC6-60">
          <mxGeometry y="310" width="150" height="34" as="geometry" />
        </mxCell>
        <mxCell id="_3tYd07YaPsQRmrrhwC6-74" value="+&amp;nbsp;getStock() const:int" style="text;strokeColor=none;fillColor=none;align=left;verticalAlign=top;spacingLeft=4;spacingRight=4;overflow=hidden;rotatable=0;points=[[0,0.5],[1,0.5]];portConstraint=eastwest;whiteSpace=wrap;html=1;" vertex="1" parent="_3tYd07YaPsQRmrrhwC6-60">
          <mxGeometry y="344" width="150" height="34" as="geometry" />
        </mxCell>
        <mxCell id="_3tYd07YaPsQRmrrhwC6-76" value="&lt;p style=&quot;margin:0px;margin-top:4px;text-align:center;&quot;&gt;&lt;b&gt;Inventory&lt;/b&gt;&lt;/p&gt;&lt;hr size=&quot;1&quot; style=&quot;border-style:solid;&quot;&gt;&lt;p style=&quot;margin:0px;margin-left:4px;&quot;&gt;+ product_id:product&lt;/p&gt;&lt;hr size=&quot;1&quot; style=&quot;border-style:solid;&quot;&gt;&lt;p style=&quot;margin:0px;margin-left:4px;&quot;&gt;+ add_product(const Product&amp;amp; product): bool&lt;/p&gt;&lt;p style=&quot;margin:0px;margin-left:4px;&quot;&gt;&amp;nbsp;&lt;/p&gt;&lt;p style=&quot;margin:0px;margin-left:4px;&quot;&gt;+remove_Product(const&lt;/p&gt;&lt;p style=&quot;margin:0px;margin-left:4px;&quot;&gt;string&amp;amp; product_Id):bool&lt;/p&gt;&lt;p style=&quot;margin:0px;margin-left:4px;&quot;&gt;&lt;br&gt;&lt;/p&gt;&lt;p style=&quot;margin:0px;margin-left:4px;&quot;&gt;&lt;br&gt;&lt;/p&gt;&lt;p style=&quot;margin:0px;margin-left:4px;&quot;&gt;&lt;br&gt;&lt;/p&gt;" style="verticalAlign=top;align=left;overflow=fill;html=1;whiteSpace=wrap;" vertex="1" parent="1">
          <mxGeometry x="600" y="330" width="150" height="210" as="geometry" />
        </mxCell>
        <mxCell id="_3tYd07YaPsQRmrrhwC6-77" value="Order" style="swimlane;fontStyle=1;align=center;verticalAlign=top;childLayout=stackLayout;horizontal=1;startSize=26;horizontalStack=0;resizeParent=1;resizeParentMax=0;resizeLast=0;collapsible=1;marginBottom=0;whiteSpace=wrap;html=1;" vertex="1" parent="1">
          <mxGeometry x="-30" y="480" width="160" height="336" as="geometry">
            <mxRectangle x="-30" y="480" width="70" height="30" as="alternateBounds" />
          </mxGeometry>
        </mxCell>
        <mxCell id="_3tYd07YaPsQRmrrhwC6-78" value="+ order_id: string" style="text;strokeColor=none;fillColor=none;align=left;verticalAlign=top;spacingLeft=4;spacingRight=4;overflow=hidden;rotatable=0;points=[[0,0.5],[1,0.5]];portConstraint=eastwest;whiteSpace=wrap;html=1;" vertex="1" parent="_3tYd07YaPsQRmrrhwC6-77">
          <mxGeometry y="26" width="160" height="26" as="geometry" />
        </mxCell>
        <mxCell id="_3tYd07YaPsQRmrrhwC6-83" value="+ *customer:customer" style="text;strokeColor=none;fillColor=none;align=left;verticalAlign=top;spacingLeft=4;spacingRight=4;overflow=hidden;rotatable=0;points=[[0,0.5],[1,0.5]];portConstraint=eastwest;whiteSpace=wrap;html=1;" vertex="1" parent="_3tYd07YaPsQRmrrhwC6-77">
          <mxGeometry y="52" width="160" height="26" as="geometry" />
        </mxCell>
        <mxCell id="_3tYd07YaPsQRmrrhwC6-82" value="+ items:int" style="text;strokeColor=none;fillColor=none;align=left;verticalAlign=top;spacingLeft=4;spacingRight=4;overflow=hidden;rotatable=0;points=[[0,0.5],[1,0.5]];portConstraint=eastwest;whiteSpace=wrap;html=1;" vertex="1" parent="_3tYd07YaPsQRmrrhwC6-77">
          <mxGeometry y="78" width="160" height="26" as="geometry" />
        </mxCell>
        <mxCell id="_3tYd07YaPsQRmrrhwC6-81" value="+order_date:time_stmp" style="text;strokeColor=none;fillColor=none;align=left;verticalAlign=top;spacingLeft=4;spacingRight=4;overflow=hidden;rotatable=0;points=[[0,0.5],[1,0.5]];portConstraint=eastwest;whiteSpace=wrap;html=1;" vertex="1" parent="_3tYd07YaPsQRmrrhwC6-77">
          <mxGeometry y="104" width="160" height="26" as="geometry" />
        </mxCell>
        <mxCell id="_3tYd07YaPsQRmrrhwC6-84" value="+status:string" style="text;strokeColor=none;fillColor=none;align=left;verticalAlign=top;spacingLeft=4;spacingRight=4;overflow=hidden;rotatable=0;points=[[0,0.5],[1,0.5]];portConstraint=eastwest;whiteSpace=wrap;html=1;" vertex="1" parent="_3tYd07YaPsQRmrrhwC6-77">
          <mxGeometry y="130" width="160" height="26" as="geometry" />
        </mxCell>
        <mxCell id="_3tYd07YaPsQRmrrhwC6-79" value="" style="line;strokeWidth=1;fillColor=none;align=left;verticalAlign=middle;spacingTop=-1;spacingLeft=3;spacingRight=3;rotatable=0;labelPosition=right;points=[];portConstraint=eastwest;strokeColor=inherit;" vertex="1" parent="_3tYd07YaPsQRmrrhwC6-77">
          <mxGeometry y="156" width="160" height="8" as="geometry" />
        </mxCell>
        <mxCell id="_3tYd07YaPsQRmrrhwC6-80" value="&amp;nbsp;updateStatus(conststring&amp;amp; newStatus):void" style="text;strokeColor=none;fillColor=none;align=left;verticalAlign=top;spacingLeft=4;spacingRight=4;overflow=hidden;rotatable=0;points=[[0,0.5],[1,0.5]];portConstraint=eastwest;whiteSpace=wrap;html=1;" vertex="1" parent="_3tYd07YaPsQRmrrhwC6-77">
          <mxGeometry y="164" width="160" height="36" as="geometry" />
        </mxCell>
        <mxCell id="_3tYd07YaPsQRmrrhwC6-86" value="+ getOrderTotal(const vector&amp;lt;Product&amp;gt;&amp;amp; inventory) const :double" style="text;strokeColor=none;fillColor=none;align=left;verticalAlign=top;spacingLeft=4;spacingRight=4;overflow=hidden;rotatable=0;points=[[0,0.5],[1,0.5]];portConstraint=eastwest;whiteSpace=wrap;html=1;" vertex="1" parent="_3tYd07YaPsQRmrrhwC6-77">
          <mxGeometry y="200" width="160" height="50" as="geometry" />
        </mxCell>
        <mxCell id="_3tYd07YaPsQRmrrhwC6-85" value="+getId() const :string&lt;div&gt;&lt;br&gt;&lt;/div&gt;" style="text;strokeColor=none;fillColor=none;align=left;verticalAlign=top;spacingLeft=4;spacingRight=4;overflow=hidden;rotatable=0;points=[[0,0.5],[1,0.5]];portConstraint=eastwest;whiteSpace=wrap;html=1;" vertex="1" parent="_3tYd07YaPsQRmrrhwC6-77">
          <mxGeometry y="250" width="160" height="40" as="geometry" />
        </mxCell>
        <mxCell id="_3tYd07YaPsQRmrrhwC6-87" value="+getStatus() const :string" style="text;strokeColor=none;fillColor=none;align=left;verticalAlign=top;spacingLeft=4;spacingRight=4;overflow=hidden;rotatable=0;points=[[0,0.5],[1,0.5]];portConstraint=eastwest;whiteSpace=wrap;html=1;" vertex="1" parent="_3tYd07YaPsQRmrrhwC6-77">
          <mxGeometry y="290" width="160" height="46" as="geometry" />
        </mxCell>
        <mxCell id="_3tYd07YaPsQRmrrhwC6-88" value="Shopping_cart" style="swimlane;fontStyle=1;align=center;verticalAlign=top;childLayout=stackLayout;horizontal=1;startSize=26;horizontalStack=0;resizeParent=1;resizeParentMax=0;resizeLast=0;collapsible=1;marginBottom=0;whiteSpace=wrap;html=1;" vertex="1" parent="1">
          <mxGeometry x="-250" y="160" width="200" height="230" as="geometry">
            <mxRectangle x="-300" y="504" width="120" height="30" as="alternateBounds" />
          </mxGeometry>
        </mxCell>
        <mxCell id="_3tYd07YaPsQRmrrhwC6-89" value="+ items : int" style="text;strokeColor=none;fillColor=none;align=left;verticalAlign=top;spacingLeft=4;spacingRight=4;overflow=hidden;rotatable=0;points=[[0,0.5],[1,0.5]];portConstraint=eastwest;whiteSpace=wrap;html=1;" vertex="1" parent="_3tYd07YaPsQRmrrhwC6-88">
          <mxGeometry y="26" width="200" height="26" as="geometry" />
        </mxCell>
        <mxCell id="_3tYd07YaPsQRmrrhwC6-90" value="" style="line;strokeWidth=1;fillColor=none;align=left;verticalAlign=middle;spacingTop=-1;spacingLeft=3;spacingRight=3;rotatable=0;labelPosition=right;points=[];portConstraint=eastwest;strokeColor=inherit;" vertex="1" parent="_3tYd07YaPsQRmrrhwC6-88">
          <mxGeometry y="52" width="200" height="8" as="geometry" />
        </mxCell>
        <mxCell id="_3tYd07YaPsQRmrrhwC6-91" value="+&amp;nbsp; addItem(const string&amp;amp; productId, int quantity ):void" style="text;strokeColor=none;fillColor=none;align=left;verticalAlign=top;spacingLeft=4;spacingRight=4;overflow=hidden;rotatable=0;points=[[0,0.5],[1,0.5]];portConstraint=eastwest;whiteSpace=wrap;html=1;" vertex="1" parent="_3tYd07YaPsQRmrrhwC6-88">
          <mxGeometry y="60" width="200" height="50" as="geometry" />
        </mxCell>
        <mxCell id="_3tYd07YaPsQRmrrhwC6-92" value="+remove_Item(const string&amp;amp; productId , int quantity ): void" style="text;strokeColor=none;fillColor=none;align=left;verticalAlign=top;spacingLeft=4;spacingRight=4;overflow=hidden;rotatable=0;points=[[0,0.5],[1,0.5]];portConstraint=eastwest;whiteSpace=wrap;html=1;" vertex="1" parent="_3tYd07YaPsQRmrrhwC6-88">
          <mxGeometry y="110" width="200" height="50" as="geometry" />
        </mxCell>
        <mxCell id="_3tYd07YaPsQRmrrhwC6-93" value="+getTotal() const :double" style="text;strokeColor=none;fillColor=none;align=left;verticalAlign=top;spacingLeft=4;spacingRight=4;overflow=hidden;rotatable=0;points=[[0,0.5],[1,0.5]];portConstraint=eastwest;whiteSpace=wrap;html=1;" vertex="1" parent="_3tYd07YaPsQRmrrhwC6-88">
          <mxGeometry y="160" width="200" height="70" as="geometry" />
        </mxCell>
        <mxCell id="_3tYd07YaPsQRmrrhwC6-97" value="" style="endArrow=classic;html=1;rounded=0;exitX=0.5;exitY=0;exitDx=0;exitDy=0;entryX=-0.005;entryY=0.03;entryDx=0;entryDy=0;entryPerimeter=0;" edge="1" parent="1" source="_3tYd07YaPsQRmrrhwC6-49" target="_3tYd07YaPsQRmrrhwC6-42">
          <mxGeometry width="50" height="50" relative="1" as="geometry">
            <mxPoint x="120" y="90" as="sourcePoint" />
            <mxPoint x="350" y="60" as="targetPoint" />
            <Array as="points">
              <mxPoint x="156" y="60" />
            </Array>
          </mxGeometry>
        </mxCell>
        <mxCell id="_3tYd07YaPsQRmrrhwC6-98" value="" style="endArrow=classic;html=1;rounded=0;exitX=0.474;exitY=0;exitDx=0;exitDy=0;exitPerimeter=0;entryX=0.99;entryY=0.039;entryDx=0;entryDy=0;entryPerimeter=0;" edge="1" parent="1" source="_3tYd07YaPsQRmrrhwC6-50" target="_3tYd07YaPsQRmrrhwC6-42">
          <mxGeometry width="50" height="50" relative="1" as="geometry">
            <mxPoint x="430" y="110" as="sourcePoint" />
            <mxPoint x="360" y="80" as="targetPoint" />
            <Array as="points">
              <mxPoint x="530" y="25" />
            </Array>
          </mxGeometry>
        </mxCell>
        <mxCell id="_3tYd07YaPsQRmrrhwC6-109" value="" style="endArrow=classic;html=1;rounded=0;exitX=-0.01;exitY=0.213;exitDx=0;exitDy=0;exitPerimeter=0;entryX=1;entryY=0;entryDx=0;entryDy=0;" edge="1" parent="1" source="_3tYd07YaPsQRmrrhwC6-49" target="_3tYd07YaPsQRmrrhwC6-88">
          <mxGeometry width="50" height="50" relative="1" as="geometry">
            <mxPoint x="-50" y="220" as="sourcePoint" />
            <mxPoint y="170" as="targetPoint" />
          </mxGeometry>
        </mxCell>
        <mxCell id="_3tYd07YaPsQRmrrhwC6-110" value="" style="endArrow=classic;html=1;rounded=0;exitX=0.25;exitY=1;exitDx=0;exitDy=0;entryX=0.46;entryY=-0.002;entryDx=0;entryDy=0;entryPerimeter=0;" edge="1" parent="1" source="_3tYd07YaPsQRmrrhwC6-49" target="_3tYd07YaPsQRmrrhwC6-77">
          <mxGeometry width="50" height="50" relative="1" as="geometry">
            <mxPoint x="-60" y="470" as="sourcePoint" />
            <mxPoint x="-10" y="420" as="targetPoint" />
          </mxGeometry>
        </mxCell>
        <mxCell id="_3tYd07YaPsQRmrrhwC6-111" value="" style="endArrow=classic;html=1;rounded=0;exitX=0.009;exitY=0.298;exitDx=0;exitDy=0;exitPerimeter=0;entryX=1;entryY=0;entryDx=0;entryDy=0;" edge="1" parent="1" source="_3tYd07YaPsQRmrrhwC6-76" target="_3tYd07YaPsQRmrrhwC6-60">
          <mxGeometry width="50" height="50" relative="1" as="geometry">
            <mxPoint x="470" y="470" as="sourcePoint" />
            <mxPoint x="520" y="420" as="targetPoint" />
          </mxGeometry>
        </mxCell>
        <mxCell id="_3tYd07YaPsQRmrrhwC6-112" value="" style="endArrow=classic;html=1;rounded=0;exitX=0.5;exitY=1;exitDx=0;exitDy=0;entryX=0.5;entryY=0;entryDx=0;entryDy=0;" edge="1" parent="1" source="_3tYd07YaPsQRmrrhwC6-50" target="_3tYd07YaPsQRmrrhwC6-76">
          <mxGeometry width="50" height="50" relative="1" as="geometry">
            <mxPoint x="600" y="340" as="sourcePoint" />
            <mxPoint x="650" y="290" as="targetPoint" />
          </mxGeometry>
        </mxCell>
        <mxCell id="_3tYd07YaPsQRmrrhwC6-113" value="" style="endArrow=classic;html=1;rounded=0;exitX=1;exitY=0.5;exitDx=0;exitDy=0;" edge="1" parent="1" source="_3tYd07YaPsQRmrrhwC6-82" target="_3tYd07YaPsQRmrrhwC6-71">
          <mxGeometry width="50" height="50" relative="1" as="geometry">
            <mxPoint x="210" y="610" as="sourcePoint" />
            <mxPoint x="260" y="560" as="targetPoint" />
          </mxGeometry>
        </mxCell>
      </root>
    </mxGraphModel>
  </diagram>
</mxfile>
